<svg width="40" height="40" viewBox="0 0 40 40" fill="none" xmlns="http://www.w3.org/2000/svg">
<g filter="url(#filter0_d_419_102)">
<path d="M19.9325 8.45505C19.9325 8.45505 14.1669 8.91405 11.1481 6.90256C8.12935 4.88956 8.81748 1.04507 8.81748 1.04507C8.81748 1.04507 14.5831 0.586074 17.6037 2.59757C20.6225 4.61056 19.9325 8.45505 19.9325 8.45505Z" fill="white" stroke="#05931C" stroke-width="2" stroke-linecap="round" stroke-linejoin="round"/>
<path d="M20.0675 8.45505C20.0675 8.45505 25.8331 8.91405 28.8519 6.90256C31.8706 4.88956 31.1825 1.04507 31.1825 1.04507C31.1825 1.04507 25.4169 0.586074 22.3981 2.59757C19.3794 4.61056 20.0675 8.45505 20.0675 8.45505ZM5 14.5C5 14.1022 5.19754 13.7207 5.54918 13.4394C5.90081 13.1581 6.37772 13 6.875 13H33.125C33.6223 13 34.0992 13.1581 34.4508 13.4394C34.8025 13.7207 35 14.1022 35 14.5V17.5C35 17.8979 34.8025 18.2794 34.4508 18.5607C34.0992 18.842 33.6223 19 33.125 19H6.875C6.37772 19 5.90081 18.842 5.54918 18.5607C5.19754 18.2794 5 17.8979 5 17.5V14.5ZM6.875 19H33.125L29.375 31H10.625L6.875 19Z" fill="white" stroke="#05931C" stroke-width="2" stroke-linecap="round" stroke-linejoin="round"/>
</g>
<defs>
<filter id="filter0_d_419_102" x="0" y="0" width="40" height="40" filterUnits="userSpaceOnUse" color-interpolation-filters="sRGB">
<feFlood flood-opacity="0" result="BackgroundImageFix"/>
<feColorMatrix in="SourceAlpha" type="matrix" values="0 0 0 0 0 0 0 0 0 0 0 0 0 0 0 0 0 0 127 0" result="hardAlpha"/>
<feOffset dy="4"/>
<feGaussianBlur stdDeviation="2"/>
<feComposite in2="hardAlpha" operator="out"/>
<feColorMatrix type="matrix" values="0 0 0 0 0 0 0 0 0 0 0 0 0 0 0 0 0 0 0.25 0"/>
<feBlend mode="normal" in2="BackgroundImageFix" result="effect1_dropShadow_419_102"/>
<feBlend mode="normal" in="SourceGraphic" in2="effect1_dropShadow_419_102" result="shape"/>
</filter>
</defs>
</svg>
