<svg width="30" height="30" viewBox="0 0 30 30" fill="none" xmlns="http://www.w3.org/2000/svg">
<path d="M23.661 3.33333C24.6629 3.33333 25.6648 3.33333 26.4997 3.5C26.8336 7.33333 26.8336 15 22.3251 20.3333C18.9855 24.5 13.3081 26.6667 5.62685 26.6667H3.45608C3.12212 19 4.62496 13 8.13159 9.16667C12.3062 4.33333 18.9855 3.33333 23.661 3.33333ZM23.661 0C14.4769 0 -2.38831 3.5 0.283412 29.6667C2.12022 29.8333 3.95703 30 5.62685 30C35.5167 30 29.5054 0.5 29.5054 0.5C29.5054 0.5 27.1676 0 23.661 0ZM23.327 6.66667C6.62875 6.66667 6.62875 23.3333 6.62875 23.3333C13.3081 10 23.327 6.66667 23.327 6.66667Z" fill="#05931C"/>
</svg>
